<?xml version="1.0" encoding="utf-8"?>
<!-- Generator: Adobe Illustrator 24.1.1, SVG Export Plug-In . SVG Version: 6.00 Build 0)  -->
<svg version="1.1" id="Camada_1" xmlns="http://www.w3.org/2000/svg" xmlns:xlink="http://www.w3.org/1999/xlink" x="0px" y="0px"
	 viewBox="0 0 3600 2000" style="enable-background:new 0 0 3600 2000;" xml:space="preserve">
<image style="overflow:visible;enable-background:new    ;" width="2545" height="937" xlink:href="D5AD4727.png"  transform="matrix(0.5467 0 0 0.6102 66.8571 48.2829)">
</image>
<image style="overflow:visible;enable-background:new    ;" width="2548" height="939" xlink:href="D5AD4725.png"  transform="matrix(0.5087 0 0 0.5087 1496.8572 48.2829)">
</image>
<image style="overflow:visible;enable-background:new    ;" width="2549" height="937" xlink:href="D5AD472B.png"  transform="matrix(0.5291 0 0 0.5291 109.7128 596.4286)">
</image>
<image style="overflow:visible;enable-background:new    ;" width="2535" height="931" xlink:href="D5AD472D.png"  transform="matrix(0.5232 0 0 0.4727 120.785 1181.6599)">
</image>
<image style="overflow:visible;enable-background:new    ;" width="2523" height="939" xlink:href="D5AD472F.png"  transform="matrix(0.4213 0 0 0.4035 2524.2856 1181.0222)">
</image>
<image style="overflow:visible;enable-background:new    ;" width="2524" height="937" xlink:href="D5AD472C.png"  transform="matrix(0.403 0 0 0.403 1458.2858 1181.6599)">
</image>
<image style="overflow:visible;enable-background:new    ;" width="2544" height="928" xlink:href="D5AD4724.png"  transform="matrix(0.369 0 0 0.369 1434.9214 1639.1366)">
</image>
<image style="overflow:visible;enable-background:new    ;" width="2539" height="937" xlink:href="D5AD4726.png"  transform="matrix(0.3701 0 0 0.349 314.1573 1639.1366)">
</image>
<image style="overflow:visible;" width="2528" height="934" xlink:href="addvalidator.png"  transform="matrix(0.5128 0 0 0.5722 1496.8572 628.4253)">
</image>
</svg>
